<mxfile host="app.diagrams.net" modified="2023-01-24T12:29:38.990Z" agent="5.0 (Windows NT 10.0; Win64; x64) AppleWebKit/537.36 (KHTML, like Gecko) Chrome/109.0.0.0 Safari/537.36" etag="UqGnEEPw0c5Nkb0vfq11" version="20.8.10" type="github">
  <diagram id="C5RBs43oDa-KdzZeNtuy" name="Page-1">
    <mxGraphModel dx="1050" dy="541" grid="1" gridSize="10" guides="1" tooltips="1" connect="1" arrows="1" fold="1" page="1" pageScale="1" pageWidth="827" pageHeight="1169" math="0" shadow="0">
      <root>
        <mxCell id="WIyWlLk6GJQsqaUBKTNV-0" />
        <mxCell id="WIyWlLk6GJQsqaUBKTNV-1" parent="WIyWlLk6GJQsqaUBKTNV-0" />
        <mxCell id="2VQlA1CodOvKgHyWzzHg-2" value="" style="edgeStyle=orthogonalEdgeStyle;rounded=0;orthogonalLoop=1;jettySize=auto;html=1;" edge="1" parent="WIyWlLk6GJQsqaUBKTNV-1" source="2VQlA1CodOvKgHyWzzHg-0" target="2VQlA1CodOvKgHyWzzHg-1">
          <mxGeometry relative="1" as="geometry" />
        </mxCell>
        <mxCell id="2VQlA1CodOvKgHyWzzHg-0" value="Start" style="ellipse;whiteSpace=wrap;html=1;" vertex="1" parent="WIyWlLk6GJQsqaUBKTNV-1">
          <mxGeometry x="170" y="60" width="120" height="80" as="geometry" />
        </mxCell>
        <mxCell id="2VQlA1CodOvKgHyWzzHg-4" value="" style="edgeStyle=orthogonalEdgeStyle;rounded=0;orthogonalLoop=1;jettySize=auto;html=1;" edge="1" parent="WIyWlLk6GJQsqaUBKTNV-1" source="2VQlA1CodOvKgHyWzzHg-1" target="2VQlA1CodOvKgHyWzzHg-3">
          <mxGeometry relative="1" as="geometry" />
        </mxCell>
        <mxCell id="2VQlA1CodOvKgHyWzzHg-1" value="Process" style="whiteSpace=wrap;html=1;" vertex="1" parent="WIyWlLk6GJQsqaUBKTNV-1">
          <mxGeometry x="170" y="180" width="120" height="60" as="geometry" />
        </mxCell>
        <mxCell id="2VQlA1CodOvKgHyWzzHg-3" value="End" style="ellipse;whiteSpace=wrap;html=1;" vertex="1" parent="WIyWlLk6GJQsqaUBKTNV-1">
          <mxGeometry x="170" y="280" width="120" height="80" as="geometry" />
        </mxCell>
      </root>
    </mxGraphModel>
  </diagram>
</mxfile>
